<svg xmlns="http://www.w3.org/2000/svg" xmlns:xlink="http://www.w3.org/1999/xlink" viewBox="0 0 426.6 631.6"><defs><style>      .cls-1, .cls-2 {        fill: none;      }      .cls-3 {        fill: #d55e48;      }      .cls-4 {        fill: #f9b049;      }      .cls-5 {        clip-path: url(#clippath-1);      }      .cls-6 {        fill: #f9b150;      }      .cls-7 {        fill: #43b59a;      }      .cls-8 {        opacity: .9;      }      .cls-2 {        stroke: #faac39;        stroke-miterlimit: 10;      }    </style><clipPath id="clippath-1"><rect class="cls-1" width="426.6" height="631.6"></rect></clipPath></defs><g><g id="Capa_1"><g class="cls-5"><g><path class="cls-3" d="M-151.3-244.3c-26.1,15.5-31.7,53.7-17.8,80.6,13.9,27,42.1,43.9,70.9,53.3,28.3,9.2,57.7,13.4,87.5,13.2,30.8-.1,62-3,92.5,2.5,67.6,12.1,140.9,74.9,129.2,149.8-2.7,17-9.5,33-15.8,49.1-6.2,16.1-11.9,32.7-12,50-.1,35.3,28,59.2,61.3,64.4,22.7,3.5,45.8-.4,68.4-4.7,44.3-8.4,93.4-21.6,116.3-60.5,11.3-19.3,14.3-42.3,16.5-64.6,2.8-28.5,4.7-57,6.7-85.6,4-58.8,6.9-122.2-24.8-171.8-7.6-11.9-17.1-22.7-29.1-30.1-12.2-7.5-26.2-11.1-40.1-14.4-98-23.4-198.7-35.9-299.5-37.4-39.7-.6-79.5.6-119.1-2.5-32.9-2.5-67-7.8-98.1,3.2l7.1,5.5Z"></path><path class="cls-7" d="M480.9,402.6c-59.3-11.1-121.3-7.1-178.7,11.3-21.8,7-43.6,16.5-59.6,32.9-17.8,18.1-26.9,42.9-34.1,67.2-6.3,21.4-11.6,43.2-14.4,65.4-4.6,36.7-2.2,74.3-10.9,110.2-11.6,47.7-43.1,90.3-85.5,115.2-35.7,21-77.3,29.3-115.8,44.8-38.4,15.5-76.5,42-87.7,81.9H489.2l-8.3-528.9Z"></path><g><path class="cls-4" d="M89.1,510.7c-2.3-.6-4.8,1.4-5.4,4.4-.3,1.7-.2,4.1.4,5.4.8,1.9,2.4,3.8,3.5,4.4,2.6,1.2,5.7-.7,6.5-4.1.4-1.8.2-4.2-.5-5.7-.8-1.8-3-4-4.5-4.4Z"></path><path class="cls-4" d="M118.3,512.6c2.4,1.2,5.6,0,7.6-2.6,1.4-1.9,2.6-5.9,2.5-8.3-.3-4.6-3.5-8.3-6.8-7.6-.9.2-4.1,2.5-4.4,3.2,0,0-.2.4-.4.8-.9,1.8-2.1,6.1-2.1,7.5,0,3.2,1.4,5.9,3.6,7Z"></path><path class="cls-4" d="M83.9,561.6c-.2-1.6-1.7-3.6-2.8-3.9-2-.5-3.5.7-4,3.1-.4,1.9,0,3.6,1,5,2.6,3.5,6.5.6,5.9-4.2Z"></path><path class="cls-4" d="M105.1,540.2c-1.2.6-2.4,2-2.9,3.6-1,3-.2,7.2,1.6,9.3,3.6,4,8.3,2.6,9.5-2.8.6-2.9,0-5.6-1.6-7.9-1.9-2.5-4.3-3.3-6.6-2.2Z"></path><path class="cls-4" d="M80.7,606.8c-3-4.1-7.9-2.6-9.1,2.8-.7,3,0,6,2,8.6,1.1,1.5,2.7,2.3,4.3,2.1,1-.1,1.3-.3,2.4-1.7,2.8-3.5,3-8.3.4-11.8Z"></path><path class="cls-4" d="M119.9,565.9c-1.3.6-1.7.9-2.7,2.4-1,1.4-1.3,2.1-1.7,3.7-.6,2.3-.5,5.1.2,7.4.7,2.3,2.6,4.9,4.4,5.8,3,1.6,5.8.8,7.9-2.1,1.6-2.2,2.1-4.3,2-7.3-.1-3-.7-4.9-2.2-6.9-2.2-3.2-5-4.2-7.9-3Z"></path><path class="cls-4" d="M161.1,527.1c-1.4-.7-2-.7-4.3-.2-2.2.5-2.9.9-4.1,2.6-.8,1.1-1.1,1.8-1.4,3-.9,4.3,1.1,9.3,4.5,11.2,1.4.8,4.2.8,5.7.2,2.2-1,3.9-4.3,4-7.8.1-3.6-2-7.7-4.6-8.9Z"></path></g><g class="cls-8"><path class="cls-6" d="M522.9,220.6c19.8,29.7,26.3,67.2,20.6,102.4-5.8,35.2-23.4,67.9-47.5,94.1-10.7,11.6-23.1,22.2-38.2,26.8-17.7,5.4-36.9,1.7-54.7-3.4-34.8-9.9-68.1-24.8-102.9-35-34.8-10.2-72.1-15.6-107.1-6.1-14.3,3.9-28,10.3-42.7,12.3-25.4,3.5-53.3-8-65.8-30.5-9.5-17.1-9.5-38.3-3.3-56.8,6.2-18.5,17.9-34.7,31-49.2,16-17.7,34.2-33.5,54-46.8,44.8-30,99.3-48.7,132.3-91.4,18.4-23.8,30.6-55.3,58.2-67.3,17.1-7.5,37.3-5.5,54.3,2.1,17,7.6,31.3,20.3,43.8,34.1,29.5,32.8,50.2,72.5,70.6,111.7l-2.6,2.9Z"></path></g><path class="cls-2" d="M-205.3-197.4c-4,56.9,44.9,100.9,95.1,116.6,69.9,21.9,143.2,4,214.6,7,26,1.1,52.5,5.3,74.9,18.5,48.7,28.7,65.2,95.3,48.8,149.3-12.9,42.6-42.4,79.6-50.1,123.4-7.4,42.1,6.5,85.1,24.3,124,17.8,38.9,39.9,76.3,50.6,117.7,15.3,59.4,8.6,135.3-12,192.9-12.3,34.6-33.5,66.8-62.2,90-33.3,26.8-75,32-112.9,49.2-50.4,23-80.6,83.7-42.6,132.5"></path></g></g></g></g></svg>