<svg xmlns="http://www.w3.org/2000/svg" xmlns:xlink="http://www.w3.org/1999/xlink" viewBox="0 0 379.8 631.6"><defs><style>      .cls-1, .cls-2 {        fill: none;      }      .cls-3 {        fill: #d55e48;      }      .cls-4 {        fill: #f9b049;      }      .cls-5 {        fill: #f9b150;      }      .cls-6 {        fill: #fdcb73;        opacity: .8;      }      .cls-7 {        fill: #43b59a;      }      .cls-8 {        fill: #f2917d;      }      .cls-2 {        stroke: #fdd7b4;        stroke-miterlimit: 10;      }      .cls-9 {        clip-path: url(#clippath);      }    </style><clipPath id="clippath"><rect class="cls-1" y="0" width="379.8" height="631.6"></rect></clipPath></defs><g><g id="Capa_1"><g class="cls-9"><g><path class="cls-7" d="M-226.7-208.3c-29.7,54.1-9.3,100.5,24,153.5C-169.4-1.8-105.3,40.8-29.2,60.7c46,12,95.3,15.9,143.5,22.2,61.4,7.9,123.3,20.3,173.9,46.5,17.7,9.1,34.2,20.3,42.9,34.7,8.6,14.4,7.8,32.4-6.5,44.2-11.9,9.8-31,13.8-49.2,13.8-18.2,0-36-3.3-53.8-5.9-96.5-13.9-206.7-1.1-273.8,50.5-23.8,18.3-41.2,40.6-65.7,58.4-22.9,16.7-51.8,29.1-83,35.8-22.8,4.9-47.7,6.6-70.4,1.3-35.3-8.4-58.7-32.2-75.5-56-28.6-40.6-45.3-85-58.1-129.5-26-90.4-36.7-185.1-4.4-274.5,19.6-54.2,60.4-109.4,132.1-131.4,11.6-3.6,24.9-6.2,36.8-3.1,11.9,3.1,20.2,14.1,13.2,21.6l.6,2.5Z"></path><path class="cls-3" d="M-78.9,273c49.1-9.2,100.5-5.9,148,9.4,18.1,5.8,36.1,13.7,49.4,27.2,14.7,15,22.3,35.5,28.2,55.7,5.2,17.8,9.6,35.8,11.9,54.2,3.8,30.4,1.8,61.5,9.1,91.3,9.6,39.5,35.7,74.8,70.8,95.4,29.6,17.4,64.1,24.3,95.9,37.1,31.8,12.9,63.4,34.8,72.7,67.8H-85.8l6.9-438.2Z"></path><path class="cls-6" d="M-132.1,860.3c36.5-116.9,44.9-242.5,24.3-363.3-5.5-32.2-13-64.3-14.1-96.9-1.7-53.7,15.1-107.8,46.7-151.2,9-12.3,19.8-24.2,34.2-29,18.6-6.2,39.7,1.2,54.2,14.4,14.5,13.1,23.6,31.2,31.1,49.3,14.6,35.4,24.3,72.8,41.1,107.2,28.3,57.9,75,104.3,114.9,155,39.8,50.7,74.4,110.9,71.1,175.3-3.1,59.9-38.3,112.8-74.5,160.6-12.9,16.9-26.3,33.9-43.7,46.1-29.2,20.4-66.8,25.1-102.4,23.1-39.9-2.3-80-12.5-113.5-34.4-33.5-21.9-59.7-56.2-67.1-95.5"></path><path class="cls-5" d="M-156.7-16.5c4.7,36.7,25.5,73.9,65.4,94.6C-50.4,99.4,2.5,100,52,98.8c23.3-.6,47.5-1.5,68.4-9.4,18.9-7.1,33.8-19.3,46.4-32.1,26.3-26.8,45.1-57.8,54.7-90.5,9.5-32.2,7.6-70.4-24.6-92.3-17.1-11.6-40.1-16.6-62.3-20.9-43.5-8.3-87.5-15.2-131.8-20.6-43.6-5.3-106.8-13.7-135.1,17.8-28,31.1-29.1,96.6-24.5,132.6Z"></path><path class="cls-2" d="M-141.6-26.1c3.7,28.8,20.1,58.1,51.3,74.3,32.1,16.7,73.7,17.2,112.5,16.2,18.3-.5,37.3-1.2,53.8-7.4,14.9-5.6,26.5-15.1,36.5-25.2,20.7-21,35.4-45.4,43-71.1,7.4-25.3,6-55.3-19.3-72.5-13.5-9.1-31.5-13-48.9-16.4-34.2-6.5-68.7-11.9-103.5-16.1-34.3-4.1-83.9-10.7-106.1,14-22,24.4-22.8,75.9-19.2,104.2Z"></path><path class="cls-5" d="M282,341c-14.1-13.6-29.3-27.9-48.5-32.1-5.5-1.2-11.2-1.6-16.9-1.8-6.4-.2-12.7-.2-19.1,0-3.3,0-6.7.2-9.8,1.4-4.6,1.8-8.1,5.6-11,9.6-5.4,7.4-9.4,15.9-10.4,25-1,9.1,1.1,18.7,7,25.7,5.1,6.2,12.6,10,20.4,11.9,7.8,1.9,15.9,2.2,23.9,2.2,21,.2,43.1-1.1,60.7-12.4,11.2-7.2,13.4-20.2,3.8-29.5Z"></path><g><path class="cls-4" d="M167.9,236.1c-1.3-.4-2.8.8-3.1,2.5-.2,1,0,2.3.3,3.1.5,1.1,1.4,2.2,2,2.5,1.5.7,3.3-.4,3.7-2.4.2-1,.1-2.4-.3-3.3-.5-1.1-1.7-2.3-2.6-2.5Z"></path><path class="cls-4" d="M184.8,237.2c1.4.7,3.2,0,4.4-1.5.8-1.1,1.5-3.4,1.4-4.8-.2-2.7-2-4.8-3.9-4.4-.5.1-2.4,1.5-2.5,1.8,0,0-.1.3-.2.5-.5,1-1.2,3.5-1.2,4.3,0,1.9.8,3.4,2.1,4Z"></path><path class="cls-4" d="M165,265.5c-.1-.9-1-2.1-1.6-2.2-1.2-.3-2,.4-2.3,1.8-.2,1.1,0,2.1.6,2.9,1.5,2,3.8.4,3.4-2.4Z"></path><path class="cls-4" d="M177.2,253.2c-.7.3-1.4,1.2-1.7,2.1-.6,1.7-.1,4.2.9,5.4,2.1,2.3,4.8,1.5,5.5-1.6.4-1.7,0-3.2-.9-4.5-1.1-1.5-2.5-1.9-3.8-1.3Z"></path><path class="cls-4" d="M163.1,291.6c-1.7-2.4-4.5-1.5-5.2,1.6-.4,1.7,0,3.5,1.1,5,.6.9,1.6,1.4,2.5,1.2.6,0,.8-.2,1.4-1,1.6-2,1.7-4.8.2-6.8Z"></path><path class="cls-4" d="M164.4,308.9c-1,.4-1.4.8-1.7,1.7-.5,1.3-.2,2.9.6,4.1.9,1.2,2.3,1.7,3.1,1,.2-.1.5-.5.8-.7,1-.8,1.5-2.7,1.1-4.3-.5-2-2-2.8-3.9-1.9Z"></path><path class="cls-4" d="M185.7,268c-.8.3-1,.5-1.6,1.4-.6.8-.8,1.2-1,2.2-.3,1.3-.3,2.9.1,4.2.4,1.4,1.5,2.8,2.6,3.4,1.7.9,3.3.5,4.5-1.2.9-1.3,1.2-2.5,1.1-4.2,0-1.7-.4-2.8-1.2-4-1.3-1.8-2.9-2.4-4.6-1.7Z"></path><path class="cls-4" d="M209.5,245.6c-.8-.4-1.2-.4-2.5-.1-1.2.3-1.7.5-2.4,1.5-.4.6-.6,1.1-.8,1.8-.5,2.5.7,5.3,2.6,6.4.8.4,2.5.5,3.3,0,1.3-.6,2.3-2.5,2.3-4.5,0-2.1-1.1-4.5-2.6-5.2Z"></path></g><path class="cls-8" d="M-255.6,313.1c-7.7,1.6-14.5-2.5-19-8.6s-5.9-12.7-7.4-19.5c-3-14.9-3-30.3,0-45.2,6-31.2,23.8-59.1,47.1-80.3,50-45.5,120-62.6,186.1-62.9,19.8,0,39.6.6,59.4-.4,18.5-1,36.9-3.4,55-7,35-7,69.6-18.1,102.1-33,29.4-13.5,57.2-32.2,71.8-62,13.9-28.3,14.8-60.3,13.7-91.2s-4.5-72.5,10.9-105.2c12.3-26,34.8-46.9,61.9-56.6s14.3-4.3,21.7-5.4,1.1-3.2-.8-2.9c-29.4,4.3-55.9,20.4-73.7,44.1s-14.5,23.6-18.2,36.9-6.1,37.3-5.9,56.2c.5,34.1,4.8,68.7-4.5,102.1-4.5,16.1-12.1,31.1-23.2,43.7-11.4,12.8-25.7,22.6-40.7,30.6s-32.8,15.3-49.9,21.4c-17.5,6.3-35.4,11.6-53.6,15.8-18.9,4.4-38,7.5-57.3,9-20,1.6-40.1,1.1-60.2,1s-37.5.4-56.1,2.9-33.6,5.9-49.8,10.9c-30.8,9.5-60.5,24.1-85.3,44.9-24.3,20.4-43.5,47.5-51.7,78.4-3.7,14.2-5.1,29-3.5,43.6s3.9,28.6,14.8,37.4,10.8,5.6,17.1,4.3,1.1-3.3-.8-2.9h0Z"></path><g><path class="cls-7" d="M-16.5,579.6c-2.7,2.6-2,7.7,1.5,10.9,2,1.8,5.4,3.5,7.8,3.8,3.2.4,7.1-.1,8.8-1.2,3.8-2.5,3.6-8.4-.3-12.1-2.1-2-5.5-3.6-8.1-3.9-3.2-.4-7.9.8-9.6,2.5Z"></path><path class="cls-7" d="M9.9,541.3c3.5-2.3,4.6-7.5,2.6-12.4-1.5-3.5-5.9-8.3-9.3-10.1-6.5-3.4-14.1-1.9-15.8,3.1-.5,1.3.1,7.7.8,8.6,0,.1.4.6.8,1.2,1.7,2.6,6.6,7.8,8.5,8.9,4.4,2.6,9.2,2.8,12.5.7Z"></path><path class="cls-7" d="M48.9,627.9c-2.3-1-6.3-.6-7.6.7-2.3,2.4-2,5.3,1,8.1,2.2,2.1,4.8,3,7.6,2.7,6.8-.7,6.2-8.4-1-11.5Z"></path><path class="cls-7" d="M36.8,581.7c-.2,2.1.9,4.9,2.6,6.8,3.3,3.7,9.7,6.2,14,5.3,8.4-1.6,10.3-9.2,3.8-15.2-3.4-3.2-7.6-4.6-12-4.2-4.9.5-8,3.2-8.4,7.3Z"></path><path class="cls-7" d="M83.8,582.4c-.3,2.2-.2,3,1,5.6,1.1,2.5,1.7,3.4,3.7,5.3,2.7,2.6,6.5,4.7,10.2,5.7,3.7,1,8.8.4,11.6-1.3,4.5-2.8,5.8-7.2,3.5-12.5-1.7-3.9-4.1-6.4-8.3-8.6-4.2-2.2-7.3-2.9-11.2-2.6-6.1.5-9.8,3.4-10.4,8.3Z"></path><path class="cls-7" d="M64.2,494.7c-2,1.4-2.6,2.2-3.8,5.7-1.1,3.3-1.1,4.8.2,7.7.8,1.9,1.6,3,3.1,4.3,5.1,4.7,13.5,6,18.9,2.9,2.1-1.2,4.6-5.1,4.9-7.7.4-3.8-2.7-8.8-7.3-11.8-4.8-3.1-12.1-3.6-15.9-1Z"></path></g></g></g></g></g></svg>